<mxfile host="app.diagrams.net" modified="2022-12-20T11:41:32.962Z" agent="5.0 (Macintosh; Intel Mac OS X 10_15_7) AppleWebKit/605.1.15 (KHTML, like Gecko) Version/16.0 Safari/605.1.15" etag="r9mgZ3CRtp7totJPNjAZ" version="20.7.4" type="github">
  <diagram id="NdXxYkdmBAYruZXfNZ1_" name="Pagina-1">
    <mxGraphModel dx="954" dy="622" grid="1" gridSize="10" guides="1" tooltips="1" connect="1" arrows="1" fold="1" page="1" pageScale="1" pageWidth="827" pageHeight="1169" math="0" shadow="0">
      <root>
        <mxCell id="0" />
        <mxCell id="1" parent="0" />
        <mxCell id="-OdFSkEys9uMwJtU3NCh-16" value="" style="rounded=1;whiteSpace=wrap;html=1;fontSize=11;fillColor=#f5f5f5;strokeColor=#B3B3B3;fontColor=#333333;sketch=1;curveFitting=1;jiggle=2;" vertex="1" parent="1">
          <mxGeometry x="440" y="190" width="350" height="350" as="geometry" />
        </mxCell>
        <mxCell id="-OdFSkEys9uMwJtU3NCh-15" value="" style="rounded=1;whiteSpace=wrap;html=1;fontSize=11;fillColor=#f5f5f5;strokeColor=#B3B3B3;fontColor=#333333;sketch=1;curveFitting=1;jiggle=2;" vertex="1" parent="1">
          <mxGeometry x="50" y="140" width="390" height="400" as="geometry" />
        </mxCell>
        <mxCell id="erIRMq-CCrMqLy0ukCyU-4" value="Availability zone" style="sketch=0;outlineConnect=0;gradientColor=none;html=1;whiteSpace=wrap;fontSize=12;fontStyle=0;shape=mxgraph.aws4.group;grIcon=mxgraph.aws4.group_availability_zone;strokeColor=#545B64;fillColor=none;verticalAlign=top;align=left;spacingLeft=30;fontColor=#545B64;dashed=1;" parent="1" vertex="1">
          <mxGeometry x="80" y="190" width="700" height="320" as="geometry" />
        </mxCell>
        <mxCell id="4ONOkg47qgsfn-WRxHIJ-4" value="VPC - 10.0.0.0/16" style="sketch=0;outlineConnect=0;gradientColor=none;html=1;whiteSpace=wrap;fontSize=12;fontStyle=0;shape=mxgraph.aws4.group;grIcon=mxgraph.aws4.group_vpc;strokeColor=#879196;fillColor=none;verticalAlign=top;align=left;spacingLeft=30;fontColor=#879196;dashed=0;" parent="1" vertex="1">
          <mxGeometry x="70" y="160" width="730" height="360" as="geometry" />
        </mxCell>
        <mxCell id="4ONOkg47qgsfn-WRxHIJ-5" value="Public subnet - 10.0.1.0/24" style="points=[[0,0],[0.25,0],[0.5,0],[0.75,0],[1,0],[1,0.25],[1,0.5],[1,0.75],[1,1],[0.75,1],[0.5,1],[0.25,1],[0,1],[0,0.75],[0,0.5],[0,0.25]];outlineConnect=0;gradientColor=none;html=1;whiteSpace=wrap;fontSize=12;fontStyle=0;container=1;pointerEvents=0;collapsible=0;recursiveResize=0;shape=mxgraph.aws4.group;grIcon=mxgraph.aws4.group_security_group;grStroke=0;strokeColor=#248814;fillColor=#E9F3E6;verticalAlign=top;align=left;spacingLeft=30;fontColor=#248814;dashed=0;" parent="1" vertex="1">
          <mxGeometry x="105" y="225" width="310" height="135" as="geometry" />
        </mxCell>
        <mxCell id="4ONOkg47qgsfn-WRxHIJ-9" value="" style="fillColor=none;strokeColor=#DD3522;verticalAlign=top;fontStyle=0;fontColor=#DD3522;" parent="4ONOkg47qgsfn-WRxHIJ-5" vertex="1">
          <mxGeometry x="31" y="26" width="130" height="100" as="geometry" />
        </mxCell>
        <mxCell id="4ONOkg47qgsfn-WRxHIJ-6" value="" style="sketch=0;points=[[0,0,0],[0.25,0,0],[0.5,0,0],[0.75,0,0],[1,0,0],[0,1,0],[0.25,1,0],[0.5,1,0],[0.75,1,0],[1,1,0],[0,0.25,0],[0,0.5,0],[0,0.75,0],[1,0.25,0],[1,0.5,0],[1,0.75,0]];outlineConnect=0;fontColor=#232F3E;gradientColor=#F78E04;gradientDirection=north;fillColor=#D05C17;strokeColor=#ffffff;dashed=0;verticalLabelPosition=bottom;verticalAlign=top;align=center;html=1;fontSize=12;fontStyle=0;aspect=fixed;shape=mxgraph.aws4.resourceIcon;resIcon=mxgraph.aws4.ec2;" parent="4ONOkg47qgsfn-WRxHIJ-5" vertex="1">
          <mxGeometry x="71" y="56" width="50" height="50" as="geometry" />
        </mxCell>
        <mxCell id="4ONOkg47qgsfn-WRxHIJ-12" value="Security Group: iac&lt;br style=&quot;font-size: 8px;&quot;&gt;ingress: [ssh-tcp,all-icmp]&lt;br style=&quot;font-size: 8px;&quot;&gt;egress: [all-all]" style="text;html=1;strokeColor=none;fillColor=none;align=left;verticalAlign=middle;whiteSpace=wrap;rounded=0;fontSize=8;" parent="4ONOkg47qgsfn-WRxHIJ-5" vertex="1">
          <mxGeometry x="161" y="76" width="120" height="50" as="geometry" />
        </mxCell>
        <mxCell id="4ONOkg47qgsfn-WRxHIJ-11" value="" style="sketch=0;outlineConnect=0;fontColor=#232F3E;gradientColor=none;fillColor=#4D27AA;strokeColor=none;dashed=0;verticalLabelPosition=bottom;verticalAlign=top;align=center;html=1;fontSize=12;fontStyle=0;aspect=fixed;pointerEvents=1;shape=mxgraph.aws4.internet_gateway;" parent="1" vertex="1">
          <mxGeometry x="390" y="160" width="47" height="47" as="geometry" />
        </mxCell>
        <mxCell id="4ONOkg47qgsfn-WRxHIJ-13" value="" style="sketch=0;pointerEvents=1;shadow=0;dashed=0;html=1;strokeColor=none;fillColor=#434445;aspect=fixed;labelPosition=center;verticalLabelPosition=bottom;verticalAlign=top;align=center;outlineConnect=0;shape=mxgraph.vvd.laptop;" parent="1" vertex="1">
          <mxGeometry x="180" y="90" width="50" height="36" as="geometry" />
        </mxCell>
        <mxCell id="erIRMq-CCrMqLy0ukCyU-3" value="Private subnet - 10.0.11.0/24" style="points=[[0,0],[0.25,0],[0.5,0],[0.75,0],[1,0],[1,0.25],[1,0.5],[1,0.75],[1,1],[0.75,1],[0.5,1],[0.25,1],[0,1],[0,0.75],[0,0.5],[0,0.25]];outlineConnect=0;gradientColor=none;html=1;whiteSpace=wrap;fontSize=12;fontStyle=0;container=1;pointerEvents=0;collapsible=0;recursiveResize=0;shape=mxgraph.aws4.group;grIcon=mxgraph.aws4.group_security_group;grStroke=0;strokeColor=#147EBA;fillColor=#E6F2F8;verticalAlign=top;align=left;spacingLeft=30;fontColor=#147EBA;dashed=0;" parent="1" vertex="1">
          <mxGeometry x="105" y="370" width="305" height="130" as="geometry" />
        </mxCell>
        <mxCell id="-OdFSkEys9uMwJtU3NCh-1" value="Public subnet - 10.0.2.0/24" style="points=[[0,0],[0.25,0],[0.5,0],[0.75,0],[1,0],[1,0.25],[1,0.5],[1,0.75],[1,1],[0.75,1],[0.5,1],[0.25,1],[0,1],[0,0.75],[0,0.5],[0,0.25]];outlineConnect=0;gradientColor=none;html=1;whiteSpace=wrap;fontSize=12;fontStyle=0;container=1;pointerEvents=0;collapsible=0;recursiveResize=0;shape=mxgraph.aws4.group;grIcon=mxgraph.aws4.group_security_group;grStroke=0;strokeColor=#248814;fillColor=#E9F3E6;verticalAlign=top;align=left;spacingLeft=30;fontColor=#248814;dashed=0;" vertex="1" parent="1">
          <mxGeometry x="450" y="225" width="310" height="135" as="geometry" />
        </mxCell>
        <mxCell id="-OdFSkEys9uMwJtU3NCh-2" value="" style="fillColor=none;strokeColor=#DD3522;verticalAlign=top;fontStyle=0;fontColor=#DD3522;" vertex="1" parent="-OdFSkEys9uMwJtU3NCh-1">
          <mxGeometry x="31" y="26" width="130" height="100" as="geometry" />
        </mxCell>
        <mxCell id="-OdFSkEys9uMwJtU3NCh-3" value="" style="sketch=0;points=[[0,0,0],[0.25,0,0],[0.5,0,0],[0.75,0,0],[1,0,0],[0,1,0],[0.25,1,0],[0.5,1,0],[0.75,1,0],[1,1,0],[0,0.25,0],[0,0.5,0],[0,0.75,0],[1,0.25,0],[1,0.5,0],[1,0.75,0]];outlineConnect=0;fontColor=#232F3E;gradientColor=#F78E04;gradientDirection=north;fillColor=#D05C17;strokeColor=#ffffff;dashed=0;verticalLabelPosition=bottom;verticalAlign=top;align=center;html=1;fontSize=12;fontStyle=0;aspect=fixed;shape=mxgraph.aws4.resourceIcon;resIcon=mxgraph.aws4.ec2;" vertex="1" parent="-OdFSkEys9uMwJtU3NCh-1">
          <mxGeometry x="71" y="56" width="50" height="50" as="geometry" />
        </mxCell>
        <mxCell id="-OdFSkEys9uMwJtU3NCh-4" value="Security Group: web&lt;br style=&quot;font-size: 8px;&quot;&gt;ingress: [ssh-tcp, http-80-tcp,all-icmp]&lt;br style=&quot;font-size: 8px;&quot;&gt;egress: [all-all]" style="text;html=1;strokeColor=none;fillColor=none;align=left;verticalAlign=middle;whiteSpace=wrap;rounded=0;fontSize=8;" vertex="1" parent="-OdFSkEys9uMwJtU3NCh-1">
          <mxGeometry x="161" y="76" width="139" height="50" as="geometry" />
        </mxCell>
        <mxCell id="-OdFSkEys9uMwJtU3NCh-5" value="Private subnet - 10.0.12.0/24" style="points=[[0,0],[0.25,0],[0.5,0],[0.75,0],[1,0],[1,0.25],[1,0.5],[1,0.75],[1,1],[0.75,1],[0.5,1],[0.25,1],[0,1],[0,0.75],[0,0.5],[0,0.25]];outlineConnect=0;gradientColor=none;html=1;whiteSpace=wrap;fontSize=12;fontStyle=0;container=1;pointerEvents=0;collapsible=0;recursiveResize=0;shape=mxgraph.aws4.group;grIcon=mxgraph.aws4.group_security_group;grStroke=0;strokeColor=#147EBA;fillColor=#E6F2F8;verticalAlign=top;align=left;spacingLeft=30;fontColor=#147EBA;dashed=0;" vertex="1" parent="1">
          <mxGeometry x="450" y="370" width="305" height="130" as="geometry" />
        </mxCell>
        <mxCell id="-OdFSkEys9uMwJtU3NCh-6" value="" style="shape=actor;whiteSpace=wrap;html=1;fontSize=8;" vertex="1" parent="1">
          <mxGeometry x="530" y="20" width="50" height="50" as="geometry" />
        </mxCell>
        <mxCell id="-OdFSkEys9uMwJtU3NCh-7" value="INTERNET" style="ellipse;shape=cloud;whiteSpace=wrap;html=1;fontSize=8;" vertex="1" parent="1">
          <mxGeometry x="330" y="40" width="120" height="80" as="geometry" />
        </mxCell>
        <mxCell id="-OdFSkEys9uMwJtU3NCh-8" value="" style="curved=1;endArrow=classic;html=1;rounded=0;exitX=-0.02;exitY=0.98;exitDx=0;exitDy=0;exitPerimeter=0;entryX=0.5;entryY=0;entryDx=0;entryDy=0;entryPerimeter=0;dashed=1;dashPattern=1 1;" edge="1" parent="1" source="-OdFSkEys9uMwJtU3NCh-6" target="-OdFSkEys9uMwJtU3NCh-3">
          <mxGeometry width="50" height="50" relative="1" as="geometry">
            <mxPoint x="240" y="112.24242424242425" as="sourcePoint" />
            <mxPoint x="276" y="293.1140939597316" as="targetPoint" />
            <Array as="points">
              <mxPoint x="380" y="80" />
              <mxPoint x="420" y="140" />
              <mxPoint x="410" y="170" />
              <mxPoint x="450" y="180" />
              <mxPoint x="470" y="190" />
              <mxPoint x="470" y="200" />
              <mxPoint x="529" y="200" />
            </Array>
          </mxGeometry>
        </mxCell>
        <mxCell id="4ONOkg47qgsfn-WRxHIJ-14" value="" style="curved=1;endArrow=classic;html=1;rounded=0;dashed=1;dashPattern=1 1;" parent="1" source="4ONOkg47qgsfn-WRxHIJ-13" target="4ONOkg47qgsfn-WRxHIJ-9" edge="1">
          <mxGeometry width="50" height="50" relative="1" as="geometry">
            <mxPoint x="430" y="350" as="sourcePoint" />
            <mxPoint x="480" y="300" as="targetPoint" />
            <Array as="points">
              <mxPoint x="370" y="70" />
              <mxPoint x="410" y="130" />
              <mxPoint x="400" y="160" />
              <mxPoint x="400" y="210" />
              <mxPoint x="380" y="230" />
              <mxPoint x="350" y="260" />
            </Array>
          </mxGeometry>
        </mxCell>
        <mxCell id="-OdFSkEys9uMwJtU3NCh-9" value="" style="sketch=0;points=[[0,0,0],[0.25,0,0],[0.5,0,0],[0.75,0,0],[1,0,0],[0,1,0],[0.25,1,0],[0.5,1,0],[0.75,1,0],[1,1,0],[0,0.25,0],[0,0.5,0],[0,0.75,0],[1,0.25,0],[1,0.5,0],[1,0.75,0]];outlineConnect=0;fontColor=#232F3E;gradientColor=#60A337;gradientDirection=north;fillColor=#277116;strokeColor=#ffffff;dashed=0;verticalLabelPosition=bottom;verticalAlign=top;align=center;html=1;fontSize=12;fontStyle=0;aspect=fixed;shape=mxgraph.aws4.resourceIcon;resIcon=mxgraph.aws4.s3;" vertex="1" parent="1">
          <mxGeometry x="120" y="610" width="60" height="60" as="geometry" />
        </mxCell>
        <mxCell id="-OdFSkEys9uMwJtU3NCh-10" value="Bucket: my-personal-bucket-for-iac-tools&lt;br&gt;&lt;br&gt;Remote states:&lt;br&gt;iac_tools/&lt;br&gt;iac_infrastructure/&lt;br&gt;&lt;ol style=&quot;padding: 0px; margin: 0px; list-style: none; display: flex; align-items: center; width: 1080px; flex-wrap: wrap; caret-color: rgb(22, 25, 31); color: rgb(22, 25, 31); font-family: &amp;quot;Amazon Ember&amp;quot;, &amp;quot;Helvetica Neue&amp;quot;, Roboto, Arial, sans-serif; font-size: 14px; widows: 2;&quot; class=&quot;awsui_breadcrumb-group-list_d19fg_1dr7c_116&quot;&gt;&lt;li style=&quot;padding: 0px; display: inline-block; margin: 0px;&quot; class=&quot;awsui_item_d19fg_1dr7c_105&quot;&gt;&lt;/li&gt;&lt;li style=&quot;padding: 0px; display: inline-block; margin: 0px;&quot; class=&quot;awsui_item_d19fg_1dr7c_105&quot;&gt;&lt;div style=&quot;display: flex;&quot; class=&quot;awsui_breadcrumb_1kosq_w4ewt_97&quot;&gt;&lt;/div&gt;&lt;/li&gt;&lt;/ol&gt;" style="text;html=1;strokeColor=none;fillColor=none;align=left;verticalAlign=middle;whiteSpace=wrap;rounded=0;fontSize=11;" vertex="1" parent="1">
          <mxGeometry x="190" y="610" width="300" height="50" as="geometry" />
        </mxCell>
        <mxCell id="-OdFSkEys9uMwJtU3NCh-11" value="" style="outlineConnect=0;dashed=0;verticalLabelPosition=bottom;verticalAlign=top;align=center;html=1;shape=mxgraph.aws3.dynamo_db;fillColor=#2E73B8;gradientColor=none;fontSize=11;" vertex="1" parent="1">
          <mxGeometry x="433" y="650" width="30" height="30" as="geometry" />
        </mxCell>
        <mxCell id="-OdFSkEys9uMwJtU3NCh-12" value="" style="outlineConnect=0;dashed=0;verticalLabelPosition=bottom;verticalAlign=top;align=center;html=1;shape=mxgraph.aws3.dynamo_db;fillColor=#2E73B8;gradientColor=none;fontSize=11;" vertex="1" parent="1">
          <mxGeometry x="433" y="610" width="30" height="30" as="geometry" />
        </mxCell>
        <mxCell id="-OdFSkEys9uMwJtU3NCh-13" value="&lt;a style=&quot;border-collapse: separate; border-spacing: 0px; caption-side: top; direction: ltr; empty-cells: show; font-variant-ligatures: normal; font-variant-east-asian: normal; font-variant-position: normal; font-stretch: normal; -webkit-hyphens: none; list-style: outside none disc; tab-size: 8; text-align-last: auto; text-shadow: none; visibility: visible; widows: 2; box-sizing: border-box; font-size: 14px; line-height: var(--font-body-m-line-height-i7xxvv, 22px); font-family: &amp;quot;Amazon Ember&amp;quot;, &amp;quot;Helvetica Neue&amp;quot;, Roboto, Arial, sans-serif; display: inline; color: var(--color-text-link-default-753y4e, #0073bb); text-decoration: none; text-decoration-color: transparent; transition-property: color, text-decoration, -webkit-text-decoration; transition-duration: var(--motion-duration-refresh-only-medium-5flen2, 165ms);&quot; data-awsui-focus-visible=&quot;true&quot; href=&quot;https://eu-central-1.console.aws.amazon.com/dynamodbv2/home?region=eu-central-1#table?name=terraform-state-lock-iac-infra&quot; class=&quot;awsui_link_4c84z_14zdt_93 awsui_variant-secondary_4c84z_14zdt_138 awsui_font-size-body-m_4c84z_14zdt_406&quot;&gt;terraform-state-lock-iac-infra&lt;/a&gt;&lt;br&gt;&lt;ol style=&quot;padding: 0px; margin: 0px; list-style: none; display: flex; align-items: center; width: 1080px; flex-wrap: wrap; caret-color: rgb(22, 25, 31); color: rgb(22, 25, 31); font-family: &amp;quot;Amazon Ember&amp;quot;, &amp;quot;Helvetica Neue&amp;quot;, Roboto, Arial, sans-serif; font-size: 14px; widows: 2;&quot; class=&quot;awsui_breadcrumb-group-list_d19fg_1dr7c_116&quot;&gt;&lt;li style=&quot;padding: 0px; display: inline-block; margin: 0px;&quot; class=&quot;awsui_item_d19fg_1dr7c_105&quot;&gt;&lt;/li&gt;&lt;li style=&quot;padding: 0px; display: inline-block; margin: 0px;&quot; class=&quot;awsui_item_d19fg_1dr7c_105&quot;&gt;&lt;div style=&quot;display: flex;&quot; class=&quot;awsui_breadcrumb_1kosq_w4ewt_97&quot;&gt;&lt;/div&gt;&lt;/li&gt;&lt;/ol&gt;" style="text;html=1;strokeColor=none;fillColor=none;align=left;verticalAlign=middle;whiteSpace=wrap;rounded=0;fontSize=11;" vertex="1" parent="1">
          <mxGeometry x="476" y="640" width="300" height="50" as="geometry" />
        </mxCell>
        <mxCell id="-OdFSkEys9uMwJtU3NCh-14" value="&lt;a style=&quot;border-collapse: separate; border-spacing: 0px; caption-side: top; direction: ltr; empty-cells: show; font-variant-ligatures: normal; font-variant-east-asian: normal; font-variant-position: normal; font-stretch: normal; -webkit-hyphens: none; list-style: outside none disc; tab-size: 8; text-align-last: auto; text-shadow: none; visibility: visible; widows: 2; box-sizing: border-box; font-size: 14px; line-height: var(--font-body-m-line-height-i7xxvv, 22px); font-family: &amp;quot;Amazon Ember&amp;quot;, &amp;quot;Helvetica Neue&amp;quot;, Roboto, Arial, sans-serif; display: inline; color: var(--color-text-link-default-753y4e, #0073bb); text-decoration: none; text-decoration-color: transparent; transition-property: color, text-decoration, -webkit-text-decoration; transition-duration: var(--motion-duration-refresh-only-medium-5flen2, 165ms);&quot; data-awsui-focus-visible=&quot;true&quot; href=&quot;https://eu-central-1.console.aws.amazon.com/dynamodbv2/home?region=eu-central-1#table?name=terraform-state-lock-iac-tools&quot; class=&quot;awsui_link_4c84z_14zdt_93 awsui_variant-secondary_4c84z_14zdt_138 awsui_font-size-body-m_4c84z_14zdt_406&quot;&gt;terraform-state-lock-iac-tools&lt;/a&gt;&lt;br&gt;&lt;ol class=&quot;awsui_breadcrumb-group-list_d19fg_1dr7c_116&quot; style=&quot;padding: 0px; margin: 0px; list-style: none; display: flex; align-items: center; width: 1080px; flex-wrap: wrap; caret-color: rgb(22, 25, 31); color: rgb(22, 25, 31); font-family: &amp;quot;Amazon Ember&amp;quot;, &amp;quot;Helvetica Neue&amp;quot;, Roboto, Arial, sans-serif; font-size: 14px; widows: 2;&quot;&gt;&lt;li class=&quot;awsui_item_d19fg_1dr7c_105&quot; style=&quot;padding: 0px; display: inline-block; margin: 0px;&quot;&gt;&lt;/li&gt;&lt;li class=&quot;awsui_item_d19fg_1dr7c_105&quot; style=&quot;padding: 0px; display: inline-block; margin: 0px;&quot;&gt;&lt;div class=&quot;awsui_breadcrumb_1kosq_w4ewt_97&quot; style=&quot;display: flex;&quot;&gt;&lt;/div&gt;&lt;/li&gt;&lt;/ol&gt;" style="text;html=1;strokeColor=none;fillColor=none;align=left;verticalAlign=middle;whiteSpace=wrap;rounded=0;fontSize=11;" vertex="1" parent="1">
          <mxGeometry x="476" y="600" width="300" height="50" as="geometry" />
        </mxCell>
        <mxCell id="-OdFSkEys9uMwJtU3NCh-17" value="iac_tools/&lt;br style=&quot;font-size: 15px;&quot;&gt;&lt;ol style=&quot;padding: 0px; margin: 0px; list-style: none; display: flex; align-items: center; width: 1080px; flex-wrap: wrap; caret-color: rgb(22, 25, 31); color: rgb(22, 25, 31); font-family: &amp;quot;Amazon Ember&amp;quot;, &amp;quot;Helvetica Neue&amp;quot;, Roboto, Arial, sans-serif; font-size: 15px; widows: 2;&quot; class=&quot;awsui_breadcrumb-group-list_d19fg_1dr7c_116&quot;&gt;&lt;li style=&quot;padding: 0px; display: inline-block; margin: 0px; font-size: 15px;&quot; class=&quot;awsui_item_d19fg_1dr7c_105&quot;&gt;&lt;/li&gt;&lt;li style=&quot;padding: 0px; display: inline-block; margin: 0px; font-size: 15px;&quot; class=&quot;awsui_item_d19fg_1dr7c_105&quot;&gt;&lt;div style=&quot;display: flex; font-size: 15px;&quot; class=&quot;awsui_breadcrumb_1kosq_w4ewt_97&quot;&gt;&lt;/div&gt;&lt;/li&gt;&lt;/ol&gt;" style="text;html=1;strokeColor=none;fillColor=none;align=left;verticalAlign=middle;whiteSpace=wrap;rounded=0;fontSize=15;strokeWidth=1;" vertex="1" parent="1">
          <mxGeometry x="208" y="534.5" width="74" height="50" as="geometry" />
        </mxCell>
        <mxCell id="-OdFSkEys9uMwJtU3NCh-18" value="iac_infrastructure/&lt;br style=&quot;font-size: 15px;&quot;&gt;&lt;ol style=&quot;padding: 0px; margin: 0px; list-style: none; display: flex; align-items: center; width: 1080px; flex-wrap: wrap; caret-color: rgb(22, 25, 31); color: rgb(22, 25, 31); font-family: &amp;quot;Amazon Ember&amp;quot;, &amp;quot;Helvetica Neue&amp;quot;, Roboto, Arial, sans-serif; font-size: 15px; widows: 2;&quot; class=&quot;awsui_breadcrumb-group-list_d19fg_1dr7c_116&quot;&gt;&lt;li style=&quot;padding: 0px; display: inline-block; margin: 0px; font-size: 15px;&quot; class=&quot;awsui_item_d19fg_1dr7c_105&quot;&gt;&lt;/li&gt;&lt;li style=&quot;padding: 0px; display: inline-block; margin: 0px; font-size: 15px;&quot; class=&quot;awsui_item_d19fg_1dr7c_105&quot;&gt;&lt;div style=&quot;display: flex; font-size: 15px;&quot; class=&quot;awsui_breadcrumb_1kosq_w4ewt_97&quot;&gt;&lt;/div&gt;&lt;/li&gt;&lt;/ol&gt;" style="text;html=1;strokeColor=none;fillColor=none;align=left;verticalAlign=middle;whiteSpace=wrap;rounded=0;fontSize=15;" vertex="1" parent="1">
          <mxGeometry x="551" y="535" width="150" height="50" as="geometry" />
        </mxCell>
      </root>
    </mxGraphModel>
  </diagram>
</mxfile>
